<?xml version="1.0" standalone="no"?>
<!DOCTYPE svg PUBLIC "-//W3C//DTD SVG 20010904//EN"
 "http://www.w3.org/TR/2001/REC-SVG-20010904/DTD/svg10.dtd">
<svg version="1.0" xmlns="http://www.w3.org/2000/svg"
 width="181.000000pt" height="181.000000pt" viewBox="0 0 181.000000 181.000000"
 preserveAspectRatio="xMidYMid meet">
<metadata>
Created by potrace 1.16, written by Peter Selinger 2001-2019
</metadata>
<g transform="translate(0.000000,181.000000) scale(0.100000,-0.100000)"
fill="#000000" stroke="none">
<path d="M22 1787 l-22 -23 0 -860 0 -861 23 -21 23 -22 860 0 861 0 21 23 22
23 0 860 0 861 -23 21 -23 22 -860 0 -861 0 -21 -23z m1043 -243 c272 -65 458
-315 417 -562 -34 -205 -215 -380 -442 -428 -95 -20 -239 -14 -330 15 l-64 20
-139 -35 c-77 -19 -141 -33 -144 -31 -2 3 9 57 26 121 l29 116 -38 73 c-100
194 -67 401 90 557 151 151 369 208 595 154z"/>
<path d="M820 1298 c-53 -37 -71 -69 -77 -139 -4 -37 -12 -68 -20 -74 -11 -8
-13 -39 -11 -140 l3 -130 190 0 190 0 3 130 c2 101 0 132 -11 140 -8 6 -16 37
-20 74 -9 103 -68 161 -162 161 -38 0 -61 -6 -85 -22z m143 -59 c29 -22 51
-81 45 -119 -3 -25 -4 -25 -103 -25 -99 0 -100 0 -103 25 -10 69 42 140 103
140 18 0 44 -9 58 -21z"/>
</g>
</svg>
